STARTFONT 2.1
FONT -Adobe-Palatino-Medium-R-Normal--33-240-100-100-P-176-ISO8859-1
SIZE 24 100 100
FONTBOUNDINGBOX 39 34 -5 -9

STARTPROPERTIES 26
_DEC_DEVICE_FONTNAMES "PS=Palatino-Roman"
FONTNAME_REGISTRY ""
FAMILY_NAME "Palatino"
FOUNDRY "Adobe"
WEIGHT_NAME "Medium"
SLANT "R"
SETWIDTH_NAME "Normal"
ADD_STYLE_NAME ""
PIXEL_SIZE 33
POINT_SIZE 240
RESOLUTION_X 100
RESOLUTION_Y 100
SPACING "P"
AVERAGE_WIDTH 176
CHARSET_REGISTRY "ISO8859"
CHARSET_ENCODING "1"
CHARSET_COLLECTIONS "ASCII ISO8859-1 ADOBE-STANDARD"
FULL_NAME "Palatino Roman"
COPYRIGHT "Copyright (c) 1991 Adobe Systems, Inc."
CAP_HEIGHT 24
X_HEIGHT 16
WEIGHT 10
QUAD_WIDTH 20
DEFAULT_CHAR 0
FONT_DESCENT 9
FONT_ASCENT 25
ENDPROPERTIES

CHARS 190

STARTCHAR space
ENCODING 32
SWIDTH 250 0
DWIDTH 8 0
BBX 1 1 0 0
BITMAP
00
ENDCHAR

STARTCHAR exclam
ENCODING 33
SWIDTH 278 0
DWIDTH 9 0
BBX 4 24 2 0
BITMAP
60
F0
F0
F0
F0
60
60
60
60
60
60
60
60
60
60
60
40
00
00
00
60
F0
F0
60
ENDCHAR

STARTCHAR quotedbl
ENCODING 34
SWIDTH 371 0
DWIDTH 12 0
BBX 9 8 1 16
BITMAP
E380
E380
E380
E380
4100
4100
4100
4100
ENDCHAR

STARTCHAR numbersign
ENCODING 35
SWIDTH 500 0
DWIDTH 17 0
BBX 16 23 0 0
BITMAP
030C
030C
0618
0618
0618
0618
0618
7FFF
7FFF
0C30
0C30
0C30
0C30
0C30
FFFE
FFFE
1830
1860
1860
1860
1860
1860
1860
ENDCHAR

STARTCHAR dollar
ENCODING 36
SWIDTH 500 0
DWIDTH 16 0
BBX 14 27 1 -3
BITMAP
0200
0200
0FE0
3A70
6230
6210
C210
C200
C200
E200
F200
FF00
7FF0
1FF8
0278
023C
021C
021C
821C
8218
8238
C230
F2E0
3F80
0200
0200
0200
ENDCHAR

STARTCHAR percent
ENCODING 37
SWIDTH 840 0
DWIDTH 28 0
BBX 21 23 3 0
BITMAP
0F0180
3B8300
70FF00
608200
E08600
E08400
C08C00
C18800
C11800
C31000
663000
3C2000
0061F0
0043B8
00C718
008608
018E08
010C08
030C18
060C10
060C30
0C0660
0C03C0
ENDCHAR

STARTCHAR ampersand
ENCODING 38
SWIDTH 778 0
DWIDTH 26 0
BBX 23 24 1 0
BITMAP
00E000
03F000
067000
063000
0C3000
0C3000
0E6000
0E6000
0EC000
0F8000
070000
0F07FE
1B8FFC
33C1C0
71C0C0
E0E0C0
E0F1C0
E07980
E03F00
F01E00
780F80
7C3FFE
3FE1FC
0F8078
ENDCHAR

STARTCHAR quoteright
ENCODING 39
SWIDTH 278 0
DWIDTH 9 0
BBX 7 8 1 16
BITMAP
06
1E
1C
1C
38
30
60
C0
ENDCHAR

STARTCHAR parenleft
ENCODING 40
SWIDTH 333 0
DWIDTH 11 0
BBX 8 28 2 -4
BITMAP
03
06
0C
0C
18
38
30
70
70
60
E0
E0
E0
E0
E0
E0
E0
E0
60
70
70
30
38
18
0C
0C
06
03
ENDCHAR

STARTCHAR parenright
ENCODING 41
SWIDTH 333 0
DWIDTH 11 0
BBX 8 28 1 -4
BITMAP
C0
60
30
30
18
1C
0C
0E
0E
06
07
07
07
07
07
07
07
07
06
0E
0E
0C
1C
18
30
30
60
C0
ENDCHAR

STARTCHAR asterisk
ENCODING 42
SWIDTH 389 0
DWIDTH 13 0
BBX 11 12 1 12
BITMAP
0200
0700
6700
F600
7E00
1FE0
1FE0
7600
E600
4700
0700
0600
ENDCHAR

STARTCHAR plus
ENCODING 43
SWIDTH 606 0
DWIDTH 20 0
BBX 16 17 2 0
BITMAP
0180
0180
0180
0180
0180
0180
0180
FFFF
FFFF
0180
0180
0180
0180
0180
0180
0180
0180
ENDCHAR

STARTCHAR comma
ENCODING 44
SWIDTH 250 0
DWIDTH 8 0
BBX 7 8 0 -4
BITMAP
06
1E
1C
1C
38
30
60
C0
ENDCHAR

STARTCHAR minus
ENCODING 45
SWIDTH 606 0
DWIDTH 20 0
BBX 16 2 2 7
BITMAP
FFFF
FFFF
ENDCHAR

STARTCHAR period
ENCODING 46
SWIDTH 250 0
DWIDTH 8 0
BBX 4 4 2 0
BITMAP
60
F0
F0
60
ENDCHAR

STARTCHAR slash
ENCODING 47
SWIDTH 606 0
DWIDTH 20 0
BBX 14 28 3 -4
BITMAP
000C
0018
0018
0038
0030
0030
0060
0060
00C0
00C0
00C0
0180
0180
0300
0300
0700
0600
0600
0C00
0C00
1800
1800
3800
3000
3000
6000
6000
E000
ENDCHAR

STARTCHAR zero
ENCODING 48
SWIDTH 500 0
DWIDTH 16 0
BBX 14 24 1 0
BITMAP
07C0
1CF0
3070
3038
7038
6018
601C
601C
E01C
E01C
E01C
E01C
E01C
E01C
E01C
E01C
E018
E018
7018
7038
7030
3870
1CE0
0F80
ENDCHAR

STARTCHAR one
ENCODING 49
SWIDTH 500 0
DWIDTH 16 0
BBX 11 23 2 0
BITMAP
0300
1F00
F700
C700
0700
0700
0700
0700
0700
0700
0700
0700
0700
0700
0700
0700
0700
0700
0700
0700
0700
0F80
3FE0
ENDCHAR

STARTCHAR two
ENCODING 50
SWIDTH 500 0
DWIDTH 16 0
BBX 15 24 0 0
BITMAP
0780
1FF0
3FF8
7078
603C
603C
401C
001C
001C
0038
0038
0030
0070
00E0
00C0
0180
0300
0600
0C00
1800
3000
7FFE
7FFE
FFFE
ENDCHAR

STARTCHAR three
ENCODING 51
SWIDTH 500 0
DWIDTH 16 0
BBX 15 24 0 0
BITMAP
0FE0
1FF0
3DF8
3078
6038
401C
4018
0018
0038
0030
0060
01C0
0FF8
0C7C
001E
001E
000E
000E
000E
C00C
C01C
6038
78E0
3F80
ENDCHAR

STARTCHAR four
ENCODING 52
SWIDTH 500 0
DWIDTH 16 0
BBX 14 24 1 0
BITMAP
00E0
00E0
01E0
01E0
03E0
02E0
06E0
0CE0
08E0
18E0
10E0
30E0
20E0
60E0
40E0
C0E0
FFFC
FFFC
00E0
00E0
00E0
00E0
01F0
07FC
ENDCHAR

STARTCHAR five
ENCODING 53
SWIDTH 500 0
DWIDTH 16 0
BBX 14 24 1 0
BITMAP
3FF8
3FF8
3FF8
2000
2000
2000
2000
2000
2000
27E0
3FF0
38F8
2078
003C
001C
001C
001C
001C
0018
8018
C030
4060
79C0
3F00
ENDCHAR

STARTCHAR six
ENCODING 54
SWIDTH 500 0
DWIDTH 16 0
BBX 14 24 1 0
BITMAP
0070
01E0
0380
0600
0C00
1C00
3800
3800
7000
7000
73E0
EFF0
F878
F038
E03C
E01C
E01C
E01C
E01C
6018
7038
3030
3CE0
0FC0
ENDCHAR

STARTCHAR seven
ENCODING 55
SWIDTH 500 0
DWIDTH 16 0
BBX 15 24 1 0
BITMAP
FFFE
FFFE
FFFC
C00C
8018
8018
8030
0030
0060
0060
00C0
01C0
0180
0380
0300
0700
0600
0E00
1C00
1C00
3800
3800
7800
7000
ENDCHAR

STARTCHAR eight
ENCODING 56
SWIDTH 500 0
DWIDTH 16 0
BBX 14 24 1 0
BITMAP
0FC0
1870
3038
6038
6018
6018
7018
7030
7C70
3EC0
1F80
0FE0
1BF8
30F8
603C
E01C
C01C
C01C
C01C
C018
E018
7030
38E0
1F80
ENDCHAR

STARTCHAR nine
ENCODING 57
SWIDTH 500 0
DWIDTH 16 0
BBX 14 24 1 0
BITMAP
0FC0
1CE0
3070
7038
6038
E01C
E01C
E01C
E01C
E01C
F03C
703C
7CFC
3F98
1F38
0038
0030
0070
00E0
00C0
0180
0700
5C00
7000
ENDCHAR

STARTCHAR colon
ENCODING 58
SWIDTH 250 0
DWIDTH 8 0
BBX 4 16 2 0
BITMAP
60
F0
F0
60
00
00
00
00
00
00
00
00
60
F0
F0
60
ENDCHAR

STARTCHAR semicolon
ENCODING 59
SWIDTH 250 0
DWIDTH 8 0
BBX 7 20 0 -4
BITMAP
0C
1E
1E
0C
00
00
00
00
00
00
00
00
06
1E
1C
1C
38
30
60
C0
ENDCHAR

STARTCHAR less
ENCODING 60
SWIDTH 606 0
DWIDTH 20 0
BBX 16 17 2 0
BITMAP
0003
000F
003E
00F8
03E0
0F80
3E00
F800
E000
F000
3C00
0F80
03E0
00F8
003E
000F
0003
ENDCHAR

STARTCHAR equal
ENCODING 61
SWIDTH 606 0
DWIDTH 20 0
BBX 16 9 2 4
BITMAP
FFFF
FFFF
0000
0000
0000
0000
0000
FFFF
FFFF
ENDCHAR

STARTCHAR greater
ENCODING 62
SWIDTH 606 0
DWIDTH 20 0
BBX 16 16 2 1
BITMAP
C000
F000
3E00
0F80
03E0
00F8
003E
000F
0007
001E
0078
01E0
0780
1E00
7800
E000
ENDCHAR

STARTCHAR question
ENCODING 63
SWIDTH 444 0
DWIDTH 14 0
BBX 11 24 1 0
BITMAP
3F00
7FC0
63E0
C1E0
80E0
00E0
00E0
00E0
01C0
0180
0380
0700
0E00
0C00
1800
1800
0800
0000
0000
0000
0C00
1E00
1E00
0C00
ENDCHAR

STARTCHAR at
ENCODING 64
SWIDTH 747 0
DWIDTH 25 0
BBX 22 24 1 0
BITMAP
007C00
03FF80
0781C0
0C0060
180030
300018
703818
60FF8C
61CF8C
C3870C
C7070C
C7070C
C70708
CE0E18
CE0E18
CE1E30
663E70
6776E0
33E7D8
380038
1C0070
0F01E0
03FF80
007E00
ENDCHAR

STARTCHAR A
ENCODING 65
SWIDTH 778 0
DWIDTH 26 0
BBX 24 24 1 0
BITMAP
001800
001800
001C00
003C00
003E00
006E00
006E00
004F00
00C700
00C700
018380
018380
0103C0
0301C0
0301C0
07FFE0
0600E0
0C00F0
0C0070
0C0070
180078
180038
38007C
FF01FF
ENDCHAR

STARTCHAR B
ENCODING 66
SWIDTH 611 0
DWIDTH 20 0
BBX 17 24 1 0
BITMAP
FFFC00
3E3E00
1C0F00
1C0F00
1C0700
1C0700
1C0700
1C0700
1C0E00
1C0C00
1C3800
1FF800
1C3E00
1C0F00
1C0780
1C0380
1C0380
1C0380
1C0380
1C0780
1C0700
1C0E00
3C3C00
FFF000
ENDCHAR

STARTCHAR C
ENCODING 67
SWIDTH 709 0
DWIDTH 22 0
BBX 21 24 1 0
BITMAP
01FFC0
07E3F0
0F0070
1C0030
380010
780010
700000
F00000
F00000
F00000
E00000
E00000
E00000
F00000
F00000
F00000
780000
780000
3C0000
3E0000
1F0018
07C070
03FFE0
007F00
ENDCHAR

STARTCHAR D
ENCODING 68
SWIDTH 774 0
DWIDTH 26 0
BBX 23 24 1 0
BITMAP
FFFF80
3E1FE0
1C01F0
1C0078
1C003C
1C003C
1C001E
1C001E
1C001E
1C000E
1C000E
1C000E
1C000E
1C000E
1C001E
1C001C
1C001C
1C001C
1C0038
1C0070
1C00F0
1C01E0
3E0F80
FFFE00
ENDCHAR

STARTCHAR E
ENCODING 69
SWIDTH 611 0
DWIDTH 19 0
BBX 17 24 1 0
BITMAP
FFFF80
3FFF80
1C0100
1C0100
1C0100
1C0100
1C0000
1C0000
1C0400
1C0400
1C0400
1FFC00
1FFC00
1C0400
1C0400
1C0400
1C0000
1C0000
1C0080
1C0080
1C0080
1C0180
3FFF80
FFFF80
ENDCHAR

STARTCHAR F
ENCODING 70
SWIDTH 556 0
DWIDTH 18 0
BBX 16 24 1 0
BITMAP
FFFF
3FFF
1C03
1C03
1C01
1C01
1C00
1C00
1C04
1C04
1C04
1FFC
1FFC
1C04
1C04
1C04
1C00
1C00
1C00
1C00
1C00
1C00
3E00
FF80
ENDCHAR

STARTCHAR G
ENCODING 71
SWIDTH 763 0
DWIDTH 24 0
BBX 22 24 1 0
BITMAP
00FFC0
03E3F8
0F0038
1E0018
3C0018
380010
700010
700000
F00000
F00000
E00000
E00000
E00000
F00000
F00000
F003FC
F00078
700038
780038
3C0038
1E0038
0F0038
07E0F8
01FFC0
ENDCHAR

STARTCHAR H
ENCODING 72
SWIDTH 832 0
DWIDTH 27 0
BBX 25 24 1 0
BITMAP
FF80FF80
3E003E00
1C001C00
1C001C00
1C001C00
1C001C00
1C001C00
1C001C00
1C001C00
1C001C00
1C001C00
1FFFFC00
1C001C00
1C001C00
1C001C00
1C001C00
1C001C00
1C001C00
1C001C00
1C001C00
1C001C00
1C001C00
3E003E00
FF80FF80
ENDCHAR

STARTCHAR I
ENCODING 73
SWIDTH 337 0
DWIDTH 11 0
BBX 9 24 1 0
BITMAP
FF80
3E00
1C00
1C00
1C00
1C00
1C00
1C00
1C00
1C00
1C00
1C00
1C00
1C00
1C00
1C00
1C00
1C00
1C00
1C00
1C00
1C00
3E00
FF80
ENDCHAR

STARTCHAR J
ENCODING 74
SWIDTH 333 0
DWIDTH 11 0
BBX 10 30 0 -6
BITMAP
7FC0
1F00
0E00
0E00
0E00
0E00
0E00
0E00
0E00
0E00
0E00
0E00
0E00
0E00
0E00
0E00
0E00
0E00
0E00
0E00
0E00
0E00
0E00
0E00
0E00
0C00
0C00
9800
F000
E000
ENDCHAR

STARTCHAR K
ENCODING 75
SWIDTH 726 0
DWIDTH 24 0
BBX 22 24 1 0
BITMAP
FF80F8
3E00E0
1C01C0
1C0380
1C0700
1C0E00
1C1C00
1C3800
1C7000
1C6000
1CC000
1F8000
1FE000
1DF000
1CF800
1C7C00
1C3E00
1C1F00
1C0F80
1C07C0
1C03E0
1C01F0
3E00F8
FF807C
ENDCHAR

STARTCHAR L
ENCODING 76
SWIDTH 611 0
DWIDTH 20 0
BBX 18 24 1 0
BITMAP
FF8000
3E0000
1C0000
1C0000
1C0000
1C0000
1C0000
1C0000
1C0000
1C0000
1C0000
1C0000
1C0000
1C0000
1C0000
1C0000
1C0000
1C0000
1C00C0
1C00C0
1C0080
1C0080
3FFF80
FFFF80
ENDCHAR

STARTCHAR M
ENCODING 77
SWIDTH 946 0
DWIDTH 30 0
BBX 28 24 1 0
BITMAP
FC0003F0
3C0007C0
1E000780
1E000780
1F000F80
17000F80
17801B80
13801B80
13803380
13C03380
11C02380
11E06380
10E06380
10F0C380
1070C380
10718380
10798380
10390380
103F0380
101F0380
101E0380
100E0380
380C07C0
FE0C1FF0
ENDCHAR

STARTCHAR N
ENCODING 78
SWIDTH 831 0
DWIDTH 26 0
BBX 24 24 1 0
BITMAP
FC007F
3E001C
1E0008
1F0008
178008
178008
13C008
11E008
11F008
10F008
107808
103C08
103C08
101E08
100F08
100708
100788
1003C8
1001E8
1001E8
1000F8
100078
380038
FE0038
ENDCHAR

STARTCHAR O
ENCODING 79
SWIDTH 786 0
DWIDTH 25 0
BBX 23 24 1 0
BITMAP
01FF00
0787C0
0E00F0
1C0078
380038
70003C
70001C
F0001E
F0001E
E0001E
E0000E
E0000E
E0000E
F0000E
F0001E
F0001E
F0001C
78001C
780038
3C0038
1E0070
0F00E0
07C780
01FE00
ENDCHAR

STARTCHAR P
ENCODING 80
SWIDTH 604 0
DWIDTH 19 0
BBX 17 24 1 0
BITMAP
FFFC00
3F1E00
1C0F00
1C0780
1C0380
1C0380
1C0380
1C0380
1C0380
1C0700
1C0600
1C1C00
1CF800
1C0000
1C0000
1C0000
1C0000
1C0000
1C0000
1C0000
1C0000
1C0000
3E0000
FF8000
ENDCHAR

STARTCHAR Q
ENCODING 81
SWIDTH 786 0
DWIDTH 25 0
BBX 23 30 1 -6
BITMAP
01FF00
078FC0
0E01F0
1C0078
380038
70003C
70001C
70001E
E0001E
E0001E
E0000E
E0000E
E0000E
E0000E
F0000E
F0001E
F0001C
78001C
780038
3C0038
3E0070
1F00E0
07C380
01FF00
001800
007F00
00FFC0
0187FE
0000FC
000018
ENDCHAR

STARTCHAR R
ENCODING 82
SWIDTH 668 0
DWIDTH 22 0
BBX 20 24 1 0
BITMAP
FFFC00
3E1F00
1C0700
1C0780
1C0380
1C0380
1C0380
1C0380
1C0700
1C0E00
1C1C00
1DF000
1CF000
1CF000
1C7800
1C3C00
1C3C00
1C1E00
1C0F00
1C0F00
1C0780
1C03C0
3E03E0
FF81F0
ENDCHAR

STARTCHAR S
ENCODING 83
SWIDTH 525 0
DWIDTH 17 0
BBX 15 24 1 0
BITMAP
0FF0
3CF8
7018
E008
E008
C008
C000
E000
E000
F800
FFC0
7FF8
1FFC
007E
001E
000E
000E
800E
800C
801C
8018
E070
FFC0
3F00
ENDCHAR

STARTCHAR T
ENCODING 84
SWIDTH 613 0
DWIDTH 19 0
BBX 19 24 0 0
BITMAP
FFFFE0
FFFFE0
C0E060
C0E060
C0E060
C0E060
00E000
00E000
00E000
00E000
00E000
00E000
00E000
00E000
00E000
00E000
00E000
00E000
00E000
00E000
00E000
00E000
01F000
07FC00
ENDCHAR

STARTCHAR U
ENCODING 85
SWIDTH 778 0
DWIDTH 25 0
BBX 23 24 1 0
BITMAP
FF80FE
3E0038
1C0010
1C0010
1C0010
1C0010
1C0010
1C0010
1C0010
1C0010
1C0010
1C0010
1C0010
1C0010
1C0010
1C0010
1C0010
1C0030
1C0030
1E0020
0F0060
0F81C0
07FF80
01FE00
ENDCHAR

STARTCHAR V
ENCODING 86
SWIDTH 722 0
DWIDTH 23 0
BBX 23 24 0 0
BITMAP
FF80FE
7C0038
3C0018
1C0030
1E0030
1E0030
0E0060
0F0060
0F0040
0700C0
0780C0
038180
03C180
03C100
01C300
01E300
00E600
00F600
00F400
007C00
007C00
003800
003800
003800
ENDCHAR

STARTCHAR W
ENCODING 87
SWIDTH 1000 0
DWIDTH 32 0
BBX 32 24 0 0
BITMAP
FF0180FF
3C01801C
3C018018
1C03C018
1C03C030
1C03C030
1C07E030
1C06E030
0E0CE060
0E0C7060
0E087060
0E187040
0F1838C0
071038C0
073038C0
07301C80
07201D80
03E01D80
03E00F00
03C00F00
03C00F00
03C00F00
01800700
01800600
ENDCHAR

STARTCHAR X
ENCODING 88
SWIDTH 667 0
DWIDTH 21 0
BBX 20 24 0 0
BITMAP
7C00F0
7E00C0
1E01C0
0F0180
078300
078600
03C600
01CC00
01F800
00F800
00F000
007000
007800
00FC00
019C00
019E00
030E00
060F00
060700
0C0780
1C03C0
1803C0
3801E0
F001F0
ENDCHAR

STARTCHAR Y
ENCODING 89
SWIDTH 667 0
DWIDTH 22 0
BBX 20 25 1 0
BITMAP
000010
F80070
FC0070
3C00E0
1E00C0
0E0180
0F0180
070300
078200
038600
01CC00
01CC00
00F800
00F800
007000
007000
007000
007000
007000
007000
007000
007000
007000
00F800
03FE00
ENDCHAR

STARTCHAR Z
ENCODING 90
SWIDTH 667 0
DWIDTH 21 0
BBX 20 24 0 0
BITMAP
3FFFF0
3FFFF0
3001E0
2003C0
2003C0
200780
000F00
000E00
001E00
003C00
007800
007000
00F000
01E000
03C000
038000
078000
0F0000
1E0010
1E0010
3C0030
780030
FFFFF0
FFFFF0
ENDCHAR

STARTCHAR bracketleft
ENCODING 91
SWIDTH 333 0
DWIDTH 11 0
BBX 7 28 3 -4
BITMAP
FE
E0
E0
E0
E0
E0
E0
E0
E0
E0
E0
E0
E0
E0
E0
E0
E0
E0
E0
E0
E0
E0
E0
E0
E0
E0
E0
FE
ENDCHAR

STARTCHAR backslash
ENCODING 92
SWIDTH 606 0
DWIDTH 20 0
BBX 14 24 3 0
BITMAP
E000
6000
7000
3000
3800
1800
1C00
0C00
0E00
0600
0700
0700
0380
0380
0180
01C0
00C0
00E0
0060
0070
0030
0038
0018
001C
ENDCHAR

STARTCHAR bracketright
ENCODING 93
SWIDTH 333 0
DWIDTH 11 0
BBX 7 28 1 -4
BITMAP
FE
1E
0E
0E
0E
0E
0E
0E
0E
0E
0E
0E
0E
0E
0E
0E
0E
0E
0E
0E
0E
0E
0E
0E
0E
0E
0E
FE
ENDCHAR

STARTCHAR asciicircum
ENCODING 94
SWIDTH 606 0
DWIDTH 20 0
BBX 16 14 2 10
BITMAP
0180
03C0
03C0
07E0
0660
0E70
0C30
1818
1818
300C
300C
6006
6006
C003
ENDCHAR

STARTCHAR underscore
ENCODING 95
SWIDTH 500 0
DWIDTH 16 0
BBX 16 1 0 -5
BITMAP
FFFF
ENDCHAR

STARTCHAR quoteleft
ENCODING 96
SWIDTH 278 0
DWIDTH 9 0
BBX 7 8 1 16
BITMAP
06
0C
18
38
70
70
F0
C0
ENDCHAR

STARTCHAR a
ENCODING 97
SWIDTH 500 0
DWIDTH 16 0
BBX 14 16 1 0
BITMAP
0780
3FE0
71E0
60F0
4070
0070
00F0
0FF0
3870
7070
E070
E070
E0F0
E1F0
7F70
7C7C
ENDCHAR

STARTCHAR b
ENCODING 98
SWIDTH 553 0
DWIDTH 18 0
BBX 17 24 0 0
BITMAP
780000
F80000
780000
380000
380000
380000
380000
380000
38FC00
39FE00
3F1F00
3C0F00
3C0780
380380
380380
380380
380380
380300
380700
380600
380E00
3E1800
3FF000
27C000
ENDCHAR

STARTCHAR c
ENCODING 99
SWIDTH 444 0
DWIDTH 14 0
BBX 12 16 1 0
BITMAP
03E0
0FF0
1830
7010
6010
6000
E000
E000
E000
E000
F000
7000
7800
3C10
1FF0
07C0
ENDCHAR

STARTCHAR d
ENCODING 100
SWIDTH 611 0
DWIDTH 19 0
BBX 17 24 1 0
BITMAP
001E00
003E00
001E00
000E00
000E00
000E00
000E00
000E00
01CE00
0FFE00
1C3E00
301E00
700E00
600E00
E00E00
E00E00
E00E00
E00E00
F00E00
F01E00
783E00
7C7E00
3FCE00
0F8F80
ENDCHAR

STARTCHAR e
ENCODING 101
SWIDTH 479 0
DWIDTH 15 0
BBX 14 16 0 0
BITMAP
07E0
1CF0
3038
703C
601C
E01C
E01C
FFFC
E000
E000
E000
F000
7800
3C1C
1FF0
07C0
ENDCHAR

STARTCHAR f
ENCODING 102
SWIDTH 333 0
DWIDTH 11 0
BBX 11 24 0 0
BITMAP
01E0
03E0
0620
0C00
0C00
1C00
1C00
1C00
1C00
3FC0
7FC0
1C00
1C00
1C00
1C00
1C00
1C00
1C00
1C00
1C00
1C00
1C00
3E00
FF80
ENDCHAR

STARTCHAR g
ENCODING 103
SWIDTH 556 0
DWIDTH 17 0
BBX 16 25 1 -9
BITMAP
07C0
1CFF
307F
7038
6038
6038
6038
7030
7070
38E0
1F80
1C00
3000
3800
7FFC
3FFE
381E
600E
C006
C006
C00E
E00C
E018
7870
1FC0
ENDCHAR

STARTCHAR h
ENCODING 104
SWIDTH 582 0
DWIDTH 19 0
BBX 18 24 0 0
BITMAP
1C0000
7C0000
3C0000
1C0000
1C0000
1C0000
1C0000
1C0000
1C7800
1DFE00
1F9E00
1E0F00
1C0700
1C0700
1C0700
1C0700
1C0700
1C0700
1C0700
1C0700
1C0700
1C0700
3E0780
FF87C0
ENDCHAR

STARTCHAR i
ENCODING 105
SWIDTH 291 0
DWIDTH 10 0
BBX 9 23 0 0
BITMAP
1800
3C00
3C00
1800
0000
0000
0000
1C00
7C00
3C00
1C00
1C00
1C00
1C00
1C00
1C00
1C00
1C00
1C00
1C00
1C00
3E00
FF80
ENDCHAR

STARTCHAR j
ENCODING 106
SWIDTH 234 0
DWIDTH 8 0
BBX 6 33 -1 -9
BITMAP
08
1C
1C
1C
00
00
00
00
1C
7C
3C
1C
1C
1C
1C
1C
1C
1C
1C
1C
1C
1C
1C
1C
1C
1C
1C
18
18
18
30
70
C0
ENDCHAR

STARTCHAR k
ENCODING 107
SWIDTH 556 0
DWIDTH 18 0
BBX 17 24 0 0
BITMAP
1C0000
7C0000
3C0000
1C0000
1C0000
1C0000
1C0000
1C0000
1C0F00
1C1E00
1C3800
1C7000
1CE000
1DC000
1F8000
1FC000
1FE000
1DE000
1CF000
1C7800
1C3C00
1C1F00
3E0F80
FF8780
ENDCHAR

STARTCHAR l
ENCODING 108
SWIDTH 291 0
DWIDTH 10 0
BBX 9 24 0 0
BITMAP
1C00
7C00
3C00
1C00
1C00
1C00
1C00
1C00
1C00
1C00
1C00
1C00
1C00
1C00
1C00
1C00
1C00
1C00
1C00
1C00
1C00
1C00
3E00
FF80
ENDCHAR

STARTCHAR m
ENCODING 109
SWIDTH 883 0
DWIDTH 29 0
BBX 28 16 0 0
BITMAP
1CFC1E00
FDFE7F80
3F1EC780
1E0F83C0
1C0701C0
1C0701C0
1C0701C0
1C0701C0
1C0701C0
1C0701C0
1C0701C0
1C0701C0
1C0701C0
1C0701C0
3E0F81E0
FFBFE1F0
ENDCHAR

STARTCHAR n
ENCODING 110
SWIDTH 582 0
DWIDTH 19 0
BBX 18 16 0 0
BITMAP
1C7800
FDFE00
3F1E00
1E0F00
1C0700
1C0700
1C0700
1C0700
1C0700
1C0700
1C0700
1C0700
1C0700
1C0700
3E0780
FF87C0
ENDCHAR

STARTCHAR o
ENCODING 111
SWIDTH 546 0
DWIDTH 16 0
BBX 15 16 0 0
BITMAP
07E0
1C70
3038
701C
601E
E01E
E00E
E00E
E00E
E00E
F00E
F00C
701C
3818
1C70
0FC0
ENDCHAR

STARTCHAR p
ENCODING 112
SWIDTH 601 0
DWIDTH 19 0
BBX 18 25 -1 -9
BITMAP
1C7E00
FDFF00
3F8F80
1E0780
1C03C0
1C01C0
1C01C0
1C01C0
1C01C0
1C0180
1C0180
1C0300
1C0700
1F0C00
1FF800
1DE000
1C0000
1C0000
1C0000
1C0000
1C0000
1C0000
1C0000
3E0000
FF8000
ENDCHAR

STARTCHAR q
ENCODING 113
SWIDTH 560 0
DWIDTH 16 0
BBX 17 25 0 -9
BITMAP
07F400
0C7C00
381C00
701C00
601C00
601C00
E01C00
E01C00
E01C00
E01C00
E01C00
701C00
783C00
7C7C00
3FDC00
0F1C00
001C00
001C00
001C00
001C00
001C00
001C00
001C00
003E00
007F80
ENDCHAR

STARTCHAR r
ENCODING 114
SWIDTH 395 0
DWIDTH 13 0
BBX 12 16 0 0
BITMAP
3CF0
FDF0
3FF0
1E30
1C00
1C00
1C00
1C00
1C00
1C00
1C00
1C00
1C00
1C00
3E00
FF80
ENDCHAR

STARTCHAR s
ENCODING 115
SWIDTH 424 0
DWIDTH 12 0
BBX 11 16 0 0
BITMAP
1F80
71C0
E0C0
C040
C040
E000
FE00
7FC0
1FE0
03E0
00E0
8060
8060
C0C0
E180
7F00
ENDCHAR

STARTCHAR t
ENCODING 116
SWIDTH 326 0
DWIDTH 10 0
BBX 9 21 0 0
BITMAP
1800
3800
3800
3800
3800
3800
7F80
FF80
3800
3800
3800
3800
3800
3800
3800
3800
3800
3800
3C00
3F80
1F00
ENDCHAR

STARTCHAR u
ENCODING 117
SWIDTH 603 0
DWIDTH 19 0
BBX 17 16 0 0
BITMAP
380E00
F83E00
781E00
380E00
380E00
380E00
380E00
380E00
380E00
380E00
380E00
380E00
381E00
3C3E00
1FEE00
0FCF80
ENDCHAR

STARTCHAR v
ENCODING 118
SWIDTH 565 0
DWIDTH 17 0
BBX 16 16 0 0
BITMAP
FE3F
780E
380C
380C
1C18
1C18
1C10
0E30
0E20
0E20
0760
0740
0340
03C0
0380
0180
ENDCHAR

STARTCHAR w
ENCODING 119
SWIDTH 834 0
DWIDTH 27 0
BBX 26 16 0 0
BITMAP
FF040FC0
3C060780
3C0E0300
1C0F0300
1C1F0600
1C170600
0E138400
0E338C00
0E238C00
0661C800
0741D800
07C1D000
07C0F000
0380F000
03806000
03006000
ENDCHAR

STARTCHAR x
ENCODING 120
SWIDTH 516 0
DWIDTH 16 0
BBX 15 16 0 0
BITMAP
F01C
7818
3C30
1C20
0E60
0FC0
0780
0380
0380
07C0
05E0
0CE0
1870
3078
703C
E03E
ENDCHAR

STARTCHAR y
ENCODING 121
SWIDTH 556 0
DWIDTH 18 0
BBX 17 25 0 -9
BITMAP
FE1F80
780700
380600
3C0C00
1C0C00
1C0800
0E1800
0E1800
0F1000
073000
072000
03E000
03E000
03C000
01C000
018000
018000
010000
010000
030000
020000
060000
4C0000
780000
700000
ENDCHAR

STARTCHAR z
ENCODING 122
SWIDTH 500 0
DWIDTH 14 0
BBX 13 16 0 0
BITMAP
7FF8
6038
4070
40E0
41E0
01C0
0380
0780
0700
0E00
1C00
3C08
3808
7008
F018
FFF8
ENDCHAR

STARTCHAR braceleft
ENCODING 123
SWIDTH 333 0
DWIDTH 11 0
BBX 6 30 2 -5
BITMAP
0C
1C
38
30
30
30
30
30
30
30
30
30
30
70
E0
E0
70
30
30
30
30
30
30
30
30
30
30
38
1C
0C
ENDCHAR

STARTCHAR bar
ENCODING 124
SWIDTH 606 0
DWIDTH 20 0
BBX 2 24 9 0
BITMAP
C0
C0
C0
C0
C0
C0
C0
C0
C0
C0
C0
C0
C0
C0
C0
C0
C0
C0
C0
C0
C0
C0
C0
C0
ENDCHAR

STARTCHAR braceright
ENCODING 125
SWIDTH 333 0
DWIDTH 11 0
BBX 6 30 2 -5
BITMAP
C0
E0
70
30
30
30
30
30
30
30
30
30
30
38
1C
1C
38
30
30
30
30
30
30
30
30
30
30
70
E0
C0
ENDCHAR

STARTCHAR asciitilde
ENCODING 126
SWIDTH 606 0
DWIDTH 20 0
BBX 16 4 2 7
BITMAP
1F03
3FC6
61FC
C078
ENDCHAR

STARTCHAR exclamdown
ENCODING 161
SWIDTH 278 0
DWIDTH 9 0
BBX 4 23 2 -7
BITMAP
60
F0
F0
60
00
00
00
60
60
60
60
60
60
60
60
60
60
60
F0
F0
F0
F0
60
ENDCHAR

STARTCHAR cent
ENCODING 162
SWIDTH 500 0
DWIDTH 17 0
BBX 13 22 2 -3
BITMAP
0060
0060
0040
07F8
1CF8
3098
7098
6190
E180
E100
E300
E300
E200
F600
7600
7C00
3C18
1FF8
0FC0
0800
1800
1800
ENDCHAR

STARTCHAR sterling
ENCODING 163
SWIDTH 500 0
DWIDTH 17 0
BBX 15 24 0 0
BITMAP
003C
01FE
0386
0702
0E02
0E02
0C00
1C00
1C00
1C00
1C00
1C00
FFF0
1C00
1C00
1C00
1800
1800
1002
3002
2002
7FFE
FFFE
807E
ENDCHAR

STARTCHAR currency
ENCODING 164
SWIDTH 500 0
DWIDTH 16 0
BBX 14 15 1 4
BITMAP
CFCC
FFFC
7CF8
7038
E01C
E01C
C00C
C00C
C00C
E01C
E01C
7038
7CF8
FFFC
CFCC
ENDCHAR

STARTCHAR yen
ENCODING 165
SWIDTH 500 0
DWIDTH 17 0
BBX 18 25 -1 0
BITMAP
000040
F801C0
FC0180
3C0380
1C0300
1E0300
0E0600
0F0600
0F0C00
070C00
079800
039800
03D000
3FFF80
01E000
00E000
00E000
3FFF80
00E000
00E000
00E000
00E000
00E000
01E000
03F800
ENDCHAR

STARTCHAR brokenbar
ENCODING 166
SWIDTH 606 0
DWIDTH 20 0
BBX 2 24 9 0
BITMAP
C0
C0
C0
C0
C0
C0
C0
C0
C0
C0
00
00
00
00
C0
C0
C0
C0
C0
C0
C0
C0
C0
C0
ENDCHAR

STARTCHAR section
ENCODING 167
SWIDTH 500 0
DWIDTH 17 0
BBX 14 31 1 -7
BITMAP
03C0
0FF0
1870
3030
2010
6010
6000
7000
7800
3E00
3FC0
3FF0
61F8
6078
E01C
E01C
F01C
7C18
3F18
1FF0
07F0
00F8
0038
0018
4018
4018
4010
6030
70E0
7FC0
1E00
ENDCHAR

STARTCHAR dieresis
ENCODING 168
SWIDTH 333 0
DWIDTH 11 0
BBX 10 3 0 17
BITMAP
6180
F3C0
6180
ENDCHAR

STARTCHAR copyright
ENCODING 169
SWIDTH 747 0
DWIDTH 25 0
BBX 22 24 1 0
BITMAP
00FC00
03FF00
0F03C0
1C00E0
380060
303830
60FF18
61C718
638318
C3030C
C7000C
C7000C
C7000C
C7000C
C7000C
638118
63C318
61FE18
307830
380060
1C00E0
0F03C0
03FF00
00FC00
ENDCHAR

STARTCHAR ordfeminine
ENCODING 170
SWIDTH 333 0
DWIDTH 11 0
BBX 9 13 1 11
BITMAP
3E00
6700
4300
0300
1F00
7B00
E300
C300
C700
FF00
7380
0000
FF80
ENDCHAR

STARTCHAR guillemotleft
ENCODING 171
SWIDTH 500 0
DWIDTH 17 0
BBX 14 12 1 2
BITMAP
060C
0C18
1830
3060
60C0
E1C0
E1C0
60C0
3060
1830
0C18
0408
ENDCHAR

STARTCHAR logicalnot
ENCODING 172
SWIDTH 606 0
DWIDTH 20 0
BBX 16 9 2 4
BITMAP
FFFF
FFFF
0003
0003
0003
0003
0003
0003
0003
ENDCHAR

STARTCHAR hyphen
ENCODING 173
SWIDTH 333 0
DWIDTH 11 0
BBX 10 2 0 7
BITMAP
7FC0
FF80
ENDCHAR

STARTCHAR registered
ENCODING 174
SWIDTH 747 0
DWIDTH 25 0
BBX 22 24 1 0
BITMAP
00FC00
03FF00
0F07C0
1C01E0
380060
33F830
618E38
618618
418618
C1860C
C18E0C
C1F80C
C1980C
C19C0C
C18E0C
418E18
618618
63E7B8
300030
380060
1C00E0
0F07C0
03FF00
00FC00
ENDCHAR

STARTCHAR macron
ENCODING 175
SWIDTH 333 0
DWIDTH 11 0
BBX 10 2 0 17
BITMAP
FFC0
FFC0
ENDCHAR

STARTCHAR degree
ENCODING 176
SWIDTH 400 0
DWIDTH 13 0
BBX 9 11 2 13
BITMAP
3E00
7700
4100
C180
8080
8080
8080
C180
4100
7700
3E00
ENDCHAR

STARTCHAR plusminus
ENCODING 177
SWIDTH 606 0
DWIDTH 20 0
BBX 16 17 2 0
BITMAP
0180
0180
0180
0180
0180
0180
FFFF
FFFF
0180
0180
0180
0180
0180
0000
0000
FFFF
FFFF
ENDCHAR

STARTCHAR twosuperior
ENCODING 178
SWIDTH 300 0
DWIDTH 10 0
BBX 9 15 0 9
BITMAP
3E00
7F00
C380
8380
8180
0380
0380
0300
0600
0C00
1800
3000
6000
FF80
FF80
ENDCHAR

STARTCHAR threesuperior
ENCODING 179
SWIDTH 300 0
DWIDTH 10 0
BBX 9 15 0 9
BITMAP
3E00
7F00
6300
4300
0300
0200
0600
1F00
0380
0180
0180
C180
C380
6700
7E00
ENDCHAR

STARTCHAR acute
ENCODING 180
SWIDTH 333 0
DWIDTH 11 0
BBX 6 5 3 17
BITMAP
0C
1C
38
60
C0
ENDCHAR

STARTCHAR mu
ENCODING 181
SWIDTH 603 0
DWIDTH 19 0
BBX 18 24 0 -8
BITMAP
040100
1C0700
FC1F00
3C0F00
1C0700
1C0700
1C0700
1C0700
1C0700
1C0700
1C0700
1C0700
1C0F00
1E1F00
1FF700
1FE7C0
1C0000
1C0000
1C0000
1C0000
1C0000
1C0000
1C0000
100000
ENDCHAR

STARTCHAR paragraph
ENCODING 182
SWIDTH 628 0
DWIDTH 21 0
BBX 18 29 1 -5
BITMAP
1FFFC0
3CC700
78C600
F0C600
F0C600
F0C600
F0C600
70C600
78C600
38C600
1EC600
07C600
00C600
00C600
00C600
00C600
00C600
00C600
00C600
00C600
00C600
00C600
00C600
00C600
00C600
00C600
00C600
01C700
07FFC0
ENDCHAR

STARTCHAR periodcentered
ENCODING 183
SWIDTH 250 0
DWIDTH 8 0
BBX 4 4 2 7
BITMAP
60
F0
F0
60
ENDCHAR

STARTCHAR cedilla
ENCODING 184
SWIDTH 333 0
DWIDTH 11 0
BBX 6 7 2 -7
BITMAP
08
10
38
0C
0C
9C
F8
ENDCHAR

STARTCHAR onesuperior
ENCODING 185
SWIDTH 300 0
DWIDTH 10 0
BBX 8 15 0 9
BITMAP
1C
7C
EC
0C
0C
0C
0C
0C
0C
0C
0C
0C
0C
0C
3F
ENDCHAR

STARTCHAR ordmasculine
ENCODING 186
SWIDTH 333 0
DWIDTH 11 0
BBX 10 13 0 11
BITMAP
1E00
7380
6180
C0C0
C0C0
C0C0
C0C0
C0C0
6180
7380
1E00
0000
FFC0
ENDCHAR

STARTCHAR guillemotright
ENCODING 187
SWIDTH 500 0
DWIDTH 17 0
BBX 12 12 2 2
BITMAP
8200
C300
6180
30C0
1860
1C70
1C70
1860
30C0
6180
C300
8200
ENDCHAR

STARTCHAR onequarter
ENCODING 188
SWIDTH 750 0
DWIDTH 25 0
BBX 23 24 0 0
BITMAP
1C0010
7C0030
EC0060
0C0060
0C00C0
0C0080
0C0180
0C0300
0C0300
0C0600
0C0418
0C0C38
0C1878
0C1078
3F30D8
002198
006198
00C318
008618
0187FE
030018
030018
060018
04007E
ENDCHAR

STARTCHAR onehalf
ENCODING 189
SWIDTH 750 0
DWIDTH 25 0
BBX 24 24 0 0
BITMAP
1C0020
7C0060
EC0060
0C00C0
0C0080
0C0180
0C0300
0C0300
0C0600
0C0400
0C0CF8
0C19FC
0C130E
0C320E
3F2006
00600E
00C00C
00801C
018038
030070
0300E0
0601C0
0403FF
0C03FF
ENDCHAR

STARTCHAR threequarters
ENCODING 190
SWIDTH 750 0
DWIDTH 25 0
BBX 22 24 1 0
BITMAP
3E0030
6F0020
C70060
8300C0
030080
060180
040300
3F0300
038600
038400
018C30
819870
8318F0
C630F0
7C21B0
0063B0
00C330
00C630
018E30
010FFC
030030
060030
060030
0400FC
ENDCHAR

STARTCHAR questiondown
ENCODING 191
SWIDTH 444 0
DWIDTH 14 0
BBX 11 23 2 -7
BITMAP
0600
0F00
0F00
0600
0000
0000
0200
0300
0300
0300
0600
0C00
1C00
3800
7000
E000
E000
E000
E020
F060
F8C0
7FC0
1F80
ENDCHAR

STARTCHAR Agrave
ENCODING 192
SWIDTH 778 0
DWIDTH 26 0
BBX 24 25 1 0
BITMAP
006000
007000
003800
000C00
000600
000000
001800
001800
003C00
003C00
006E00
006E00
00C700
00C700
018380
018380
0301C0
03FFC0
0600E0
0600E0
0C0070
0C0070
180038
38003C
FE00FF
ENDCHAR

STARTCHAR Aacute
ENCODING 193
SWIDTH 778 0
DWIDTH 26 0
BBX 24 25 1 0
BITMAP
000600
000E00
001C00
003000
006000
000000
001800
001800
003C00
003C00
006E00
006E00
00C700
00C700
018380
018380
0301C0
03FFC0
0600E0
0600E0
0C0070
0C0070
180038
38003C
FE00FF
ENDCHAR

STARTCHAR Acircumflex
ENCODING 194
SWIDTH 778 0
DWIDTH 26 0
BBX 24 25 1 0
BITMAP
001800
003C00
006600
00C300
018180
000000
001800
001800
003C00
003C00
006E00
006E00
00C700
00C700
018380
018380
0301C0
03FFC0
0600E0
0600E0
0C0070
0C0070
180038
38003C
FE00FF
ENDCHAR

STARTCHAR Atilde
ENCODING 195
SWIDTH 778 0
DWIDTH 26 0
BBX 24 23 1 0
BITMAP
0038C0
007F80
00C700
000000
001800
001800
003C00
003C00
006E00
006E00
00C700
00C700
018380
018380
0301C0
03FFC0
0600E0
0600E0
0C0070
0C0070
180038
38003C
FE00FF
ENDCHAR

STARTCHAR Adieresis
ENCODING 196
SWIDTH 778 0
DWIDTH 26 0
BBX 24 23 1 0
BITMAP
00C300
01E780
00C300
000000
001800
001800
003C00
003C00
006E00
006E00
00C700
00C700
018380
018380
0301C0
03FFC0
0600E0
0600E0
0C0070
0C0070
180038
38003C
FE00FF
ENDCHAR

STARTCHAR Aring
ENCODING 197
SWIDTH 778 0
DWIDTH 26 0
BBX 24 25 1 0
BITMAP
001C00
002200
002200
002200
001C00
000000
001800
001800
003C00
003C00
006E00
006E00
00C700
00C700
018380
018380
0301C0
03FFC0
0600E0
0600E0
0C0070
0C0070
180038
38003C
FE00FF
ENDCHAR

STARTCHAR AE
ENCODING 198
SWIDTH 944 0
DWIDTH 30 0
BBX 29 24 0 0
BITMAP
003FFFF8
0007E038
0005C010
000DC010
0009C010
0019C000
0011C000
0031C000
0021C040
0061C040
00C1C040
00C1FFC0
0181FFC0
0181C040
03FFC040
03FFC040
0601C000
0601C000
0C01C008
0C01C008
1801C018
1801C018
3803FFF8
FE07FFF8
ENDCHAR

STARTCHAR Ccedilla
ENCODING 199
SWIDTH 709 0
DWIDTH 22 0
BBX 21 31 1 -7
BITMAP
01FFC0
07E3F0
0F0070
1C0030
380010
780010
700000
F00000
F00000
F00000
E00000
E00000
E00000
F00000
F00000
F00000
780000
780000
3C0000
3E0000
1F0018
07C070
03FFE0
007F00
001000
002000
007000
001800
001800
013800
01F000
ENDCHAR

STARTCHAR Egrave
ENCODING 200
SWIDTH 611 0
DWIDTH 19 0
BBX 17 25 1 0
BITMAP
060000
070000
038000
00C000
006000
000000
FFFF80
3FFF80
1C0100
1C0100
1C0100
1C0400
1C0400
1C0400
1FFC00
1FFC00
1C0400
1C0400
1C0400
1C0080
1C0080
1C0080
1C0180
3FFF80
FFFF80
ENDCHAR

STARTCHAR Eacute
ENCODING 201
SWIDTH 611 0
DWIDTH 19 0
BBX 17 25 1 0
BITMAP
003000
007000
00E000
018000
030000
000000
FFFF80
3FFF80
1C0100
1C0100
1C0100
1C0400
1C0400
1C0400
1FFC00
1FFC00
1C0400
1C0400
1C0400
1C0080
1C0080
1C0080
1C0180
3FFF80
FFFF80
ENDCHAR

STARTCHAR Ecircumflex
ENCODING 202
SWIDTH 611 0
DWIDTH 19 0
BBX 17 25 1 0
BITMAP
00C000
01E000
033000
061800
0C0C00
000000
FFFF80
3FFF80
1C0100
1C0100
1C0100
1C0400
1C0400
1C0400
1FFC00
1FFC00
1C0400
1C0400
1C0400
1C0080
1C0080
1C0080
1C0180
3FFF80
FFFF80
ENDCHAR

STARTCHAR Edieresis
ENCODING 203
SWIDTH 611 0
DWIDTH 19 0
BBX 17 23 1 0
BITMAP
061800
0F3C00
061800
000000
FFFF80
3FFF80
1C0100
1C0100
1C0100
1C0400
1C0400
1C0400
1FFC00
1FFC00
1C0400
1C0400
1C0400
1C0080
1C0080
1C0080
1C0180
3FFF80
FFFF80
ENDCHAR

STARTCHAR Igrave
ENCODING 204
SWIDTH 337 0
DWIDTH 11 0
BBX 9 25 1 0
BITMAP
3000
3800
1C00
0600
0300
0000
FF80
3E00
1C00
1C00
1C00
1C00
1C00
1C00
1C00
1C00
1C00
1C00
1C00
1C00
1C00
1C00
1C00
3E00
FF80
ENDCHAR

STARTCHAR Iacute
ENCODING 205
SWIDTH 337 0
DWIDTH 11 0
BBX 9 25 1 0
BITMAP
0600
0E00
1C00
3000
6000
0000
FF80
3E00
1C00
1C00
1C00
1C00
1C00
1C00
1C00
1C00
1C00
1C00
1C00
1C00
1C00
1C00
1C00
3E00
FF80
ENDCHAR

STARTCHAR Icircumflex
ENCODING 206
SWIDTH 337 0
DWIDTH 11 0
BBX 10 25 1 0
BITMAP
0C00
1E00
3300
6180
C0C0
0000
FF80
3E00
1C00
1C00
1C00
1C00
1C00
1C00
1C00
1C00
1C00
1C00
1C00
1C00
1C00
1C00
1C00
3E00
FF80
ENDCHAR

STARTCHAR Idieresis
ENCODING 207
SWIDTH 337 0
DWIDTH 11 0
BBX 10 23 0 0
BITMAP
6180
F3C0
6180
0000
7FC0
1F00
0E00
0E00
0E00
0E00
0E00
0E00
0E00
0E00
0E00
0E00
0E00
0E00
0E00
0E00
0E00
1F00
7FC0
ENDCHAR

STARTCHAR Eth
ENCODING 208
SWIDTH 774 0
DWIDTH 26 0
BBX 23 24 1 0
BITMAP
FFFE00
3E1FC0
1C03E0
1C00F8
1C0078
1C003C
1C001C
1C001E
1C001E
1C000E
1C000E
1C000E
FFE00E
1C000E
1C001E
1C001E
1C001C
1C001C
1C0038
1C0038
1C0070
1C01E0
3C0F80
7FFE00
ENDCHAR

STARTCHAR Ntilde
ENCODING 209
SWIDTH 831 0
DWIDTH 26 0
BBX 24 23 1 0
BITMAP
007180
00FF00
018E00
000000
FC007F
3E001C
1F0008
1F8008
17C008
13E008
11F008
10F808
107C08
103E08
101F08
100F88
1007C8
1003E8
1001F8
1000F8
100078
380038
FE0018
ENDCHAR

STARTCHAR Ograve
ENCODING 210
SWIDTH 786 0
DWIDTH 25 0
BBX 23 25 1 0
BITMAP
018000
01C000
00E000
003000
001800
000000
01FF00
0703C0
1C00F0
380078
70003C
70001C
E0001E
E0000E
E0000E
E0000E
E0000E
E0000E
F0000E
70001C
78001C
3C0038
1E0070
0781C0
01FF00
ENDCHAR

STARTCHAR Oacute
ENCODING 211
SWIDTH 786 0
DWIDTH 25 0
BBX 23 25 1 0
BITMAP
000C00
001C00
003800
006000
00C000
000000
01FF00
0703C0
1C00F0
380078
70003C
70001C
E0001E
E0000E
E0000E
E0000E
E0000E
E0000E
F0000E
70001C
78001C
3C0038
1E0070
0781C0
01FF00
ENDCHAR

STARTCHAR Ocircumflex
ENCODING 212
SWIDTH 786 0
DWIDTH 25 0
BBX 23 25 1 0
BITMAP
003000
007800
00CC00
018600
030300
000000
01FF00
0703C0
1C00F0
380078
70003C
70001C
E0001E
E0000E
E0000E
E0000E
E0000E
E0000E
F0000E
70001C
78001C
3C0038
1E0070
0781C0
01FF00
ENDCHAR

STARTCHAR Otilde
ENCODING 213
SWIDTH 786 0
DWIDTH 25 0
BBX 23 23 1 0
BITMAP
007180
00FF00
018E00
000000
01FF00
0703C0
1C00F0
380078
70003C
70001C
E0001E
E0000E
E0000E
E0000E
E0000E
E0000E
F0000E
70001C
78001C
3C0038
1E0070
0781C0
01FF00
ENDCHAR

STARTCHAR Odieresis
ENCODING 214
SWIDTH 786 0
DWIDTH 25 0
BBX 23 23 1 0
BITMAP
018600
03CF00
018600
000000
01FF00
0703C0
1C00F0
380078
70003C
70001C
E0001E
E0000E
E0000E
E0000E
E0000E
E0000E
F0000E
70001C
78001C
3C0038
1E0070
0781C0
01FF00
ENDCHAR

STARTCHAR multiply
ENCODING 215
SWIDTH 606 0
DWIDTH 20 0
BBX 14 13 3 2
BITMAP
E01C
7038
3870
1CE0
0FC0
0780
0300
0780
0CC0
1CE0
3870
7038
E01C
ENDCHAR

STARTCHAR Oslash
ENCODING 216
SWIDTH 833 0
DWIDTH 25 0
BBX 23 24 1 0
BITMAP
01FF02
0787C6
0E01FC
1C0078
380038
70007C
7000DC
70019E
E0031E
E0060E
E00C0E
E0180E
E0300E
E0600E
F0C00E
F1801E
F3001C
7E001C
7C0038
3C0038
3E0070
7F00E0
C7C380
81FE00
ENDCHAR

STARTCHAR Ugrave
ENCODING 217
SWIDTH 778 0
DWIDTH 25 0
BBX 23 25 1 0
BITMAP
006000
007000
003800
000C00
000600
000000
FF80FE
3E0038
1C0010
1C0010
1C0010
1C0010
1C0010
1C0010
1C0010
1C0010
1C0010
1C0010
1C0010
1C0010
1E0030
0E0020
0F8060
07FFC0
01FF00
ENDCHAR

STARTCHAR Uacute
ENCODING 218
SWIDTH 778 0
DWIDTH 25 0
BBX 23 25 1 0
BITMAP
000300
000700
000E00
001800
003000
000000
FF80FE
3E0038
1C0010
1C0010
1C0010
1C0010
1C0010
1C0010
1C0010
1C0010
1C0010
1C0010
1C0010
1C0010
1E0030
0E0020
0F8060
07FFC0
01FF00
ENDCHAR

STARTCHAR Ucircumflex
ENCODING 219
SWIDTH 778 0
DWIDTH 25 0
BBX 23 25 1 0
BITMAP
001800
003C00
006600
00C300
018180
000000
FF80FE
3E0038
1C0010
1C0010
1C0010
1C0010
1C0010
1C0010
1C0010
1C0010
1C0010
1C0010
1C0010
1C0010
1E0030
0E0020
0F8060
07FFC0
01FF00
ENDCHAR

STARTCHAR Udieresis
ENCODING 220
SWIDTH 778 0
DWIDTH 25 0
BBX 23 23 1 0
BITMAP
00C300
01E780
00C300
000000
FF80FE
3E0038
1C0010
1C0010
1C0010
1C0010
1C0010
1C0010
1C0010
1C0010
1C0010
1C0010
1C0010
1C0010
1E0030
0E0020
0F8060
07FFC0
01FF00
ENDCHAR

STARTCHAR Yacute
ENCODING 221
SWIDTH 667 0
DWIDTH 22 0
BBX 20 25 1 0
BITMAP
000600
000E00
001C00
003000
006000
000000
F80070
FC0070
3C00E0
1E00C0
0E0180
070100
070300
038600
018400
01CC00
00F800
00F800
007000
007000
007000
007000
007000
00F800
03FE00
ENDCHAR

STARTCHAR Thorn
ENCODING 222
SWIDTH 604 0
DWIDTH 20 0
BBX 17 24 1 0
BITMAP
FF8000
3E0000
1C0000
1C0000
1C0000
1C0000
1FFC00
1E1F00
1C0780
1C0780
1C0380
1C0380
1C0380
1C0380
1C0700
1C0700
1C1E00
1FF800
1C0000
1C0000
1C0000
1C0000
3E0000
FF8000
ENDCHAR

STARTCHAR germandbls
ENCODING 223
SWIDTH 556 0
DWIDTH 17 0
BBX 16 24 0 0
BITMAP
01F8
073C
0E0E
1C06
1806
3806
3806
3806
381C
787C
F840
38C0
38C0
38F0
38F8
387C
381E
380F
3807
3807
3886
3886
7FFC
FFF8
ENDCHAR

STARTCHAR agrave
ENCODING 224
SWIDTH 500 0
DWIDTH 16 0
BBX 14 22 1 0
BITMAP
0C00
0E00
0700
0180
00C0
0000
0780
3FE0
71E0
60F0
4070
0070
00F0
0FF0
3870
7070
E070
E070
E0F0
E1F0
7F70
7C7C
ENDCHAR

STARTCHAR aacute
ENCODING 225
SWIDTH 500 0
DWIDTH 16 0
BBX 14 22 1 0
BITMAP
00C0
01C0
0380
0600
0C00
0000
0780
3FE0
71E0
60F0
4070
0070
00F0
0FF0
3870
7070
E070
E070
E0F0
E1F0
7F70
7C7C
ENDCHAR

STARTCHAR acircumflex
ENCODING 226
SWIDTH 500 0
DWIDTH 16 0
BBX 14 22 1 0
BITMAP
0300
0780
0CC0
1860
3030
0000
0780
3FE0
71E0
60F0
4070
0070
00F0
0FF0
3870
7070
E070
E070
E0F0
E1F0
7F70
7C7C
ENDCHAR

STARTCHAR atilde
ENCODING 227
SWIDTH 500 0
DWIDTH 16 0
BBX 14 20 1 0
BITMAP
1C60
3FC0
6380
0000
0780
3FE0
71E0
60F0
4070
0070
00F0
0FF0
3870
7070
E070
E070
E0F0
E1F0
7F70
7C7C
ENDCHAR

STARTCHAR adieresis
ENCODING 228
SWIDTH 500 0
DWIDTH 16 0
BBX 14 20 1 0
BITMAP
1860
3CF0
1860
0000
0780
3FE0
71E0
60F0
4070
0070
00F0
0FF0
3870
7070
E070
E070
E0F0
E1F0
7F70
7C7C
ENDCHAR

STARTCHAR aring
ENCODING 229
SWIDTH 500 0
DWIDTH 16 0
BBX 14 22 1 0
BITMAP
0700
0880
0880
0880
0700
0000
0780
3FE0
71E0
60F0
4070
0070
00F0
0FF0
3870
7070
E070
E070
E0F0
E1F0
7F70
7C7C
ENDCHAR

STARTCHAR ae
ENCODING 230
SWIDTH 758 0
DWIDTH 23 0
BBX 22 16 0 0
BITMAP
0F87E0
1FEE70
71F838
60F018
40701C
00701C
00701C
07FFFC
3C7000
707000
E07000
E07800
E0F800
F39E0C
7E0FF8
3C07C0
ENDCHAR

STARTCHAR ccedilla
ENCODING 231
SWIDTH 444 0
DWIDTH 14 0
BBX 12 23 1 -7
BITMAP
03E0
0FF0
1830
7010
6010
6000
E000
E000
E000
E000
F000
7000
7800
3C10
1FF0
07C0
0100
0200
0700
0180
0180
1380
1F00
ENDCHAR

STARTCHAR egrave
ENCODING 232
SWIDTH 479 0
DWIDTH 15 0
BBX 14 22 0 0
BITMAP
0C00
0E00
0700
0180
00C0
0000
07E0
1CF0
3038
703C
601C
E01C
E01C
FFFC
E000
E000
E000
F000
7800
3C1C
1FF0
07C0
ENDCHAR

STARTCHAR eacute
ENCODING 233
SWIDTH 479 0
DWIDTH 15 0
BBX 14 22 0 0
BITMAP
00C0
01C0
0380
0600
0C00
0000
07E0
1CF0
3038
703C
601C
E01C
E01C
FFFC
E000
E000
E000
F000
7800
3C1C
1FF0
07C0
ENDCHAR

STARTCHAR ecircumflex
ENCODING 234
SWIDTH 479 0
DWIDTH 15 0
BBX 14 22 0 0
BITMAP
0300
0780
0CC0
1860
3030
0000
07E0
1CF0
3038
703C
601C
E01C
E01C
FFFC
E000
E000
E000
F000
7800
3C1C
1FF0
07C0
ENDCHAR

STARTCHAR edieresis
ENCODING 235
SWIDTH 479 0
DWIDTH 15 0
BBX 14 20 0 0
BITMAP
1860
3CF0
1860
0000
07E0
1CF0
3038
703C
601C
E01C
E01C
FFFC
E000
E000
E000
F000
7800
3C1C
1FF0
07C0
ENDCHAR

STARTCHAR igrave
ENCODING 236
SWIDTH 287 0
DWIDTH 10 0
BBX 9 22 0 0
BITMAP
C000
E000
7000
1800
0C00
0000
1C00
7C00
3C00
1C00
1C00
1C00
1C00
1C00
1C00
1C00
1C00
1C00
1C00
1C00
3E00
FF80
ENDCHAR

STARTCHAR iacute
ENCODING 237
SWIDTH 287 0
DWIDTH 10 0
BBX 9 22 0 0
BITMAP
0600
0E00
1C00
3000
6000
0000
1C00
7C00
3C00
1C00
1C00
1C00
1C00
1C00
1C00
1C00
1C00
1C00
1C00
1C00
3E00
FF80
ENDCHAR

STARTCHAR icircumflex
ENCODING 238
SWIDTH 287 0
DWIDTH 10 0
BBX 10 22 -1 0
BITMAP
0C00
1E00
3300
6180
C0C0
0000
0E00
3E00
1E00
0E00
0E00
0E00
0E00
0E00
0E00
0E00
0E00
0E00
0E00
0E00
1F00
7FC0
ENDCHAR

STARTCHAR idieresis
ENCODING 239
SWIDTH 287 0
DWIDTH 10 0
BBX 10 20 -1 0
BITMAP
6180
F3C0
6180
0000
0E00
3E00
1E00
0E00
0E00
0E00
0E00
0E00
0E00
0E00
0E00
0E00
0E00
0E00
1F00
7FC0
ENDCHAR

STARTCHAR eth
ENCODING 240
SWIDTH 546 0
DWIDTH 16 0
BBX 15 24 0 0
BITMAP
E060
FCC0
0F80
07C0
1DE0
1070
0078
0038
07BC
1C1C
301C
701E
600E
E00E
E00E
E00E
E00E
E00E
F00E
F00C
701C
3818
1C70
0FC0
ENDCHAR

STARTCHAR ntilde
ENCODING 241
SWIDTH 582 0
DWIDTH 19 0
BBX 18 20 0 0
BITMAP
038C00
07F800
0C7000
000000
1C7800
FDFE00
3F1E00
1E0F00
1C0700
1C0700
1C0700
1C0700
1C0700
1C0700
1C0700
1C0700
1C0700
1C0700
3E0780
FF87C0
ENDCHAR

STARTCHAR ograve
ENCODING 242
SWIDTH 546 0
DWIDTH 16 0
BBX 15 22 0 0
BITMAP
0C00
0E00
0700
0180
00C0
0000
07E0
1C70
3038
701C
601E
E01E
E00E
E00E
E00E
E00E
F00E
F00C
701C
3818
1C70
0FC0
ENDCHAR

STARTCHAR oacute
ENCODING 243
SWIDTH 546 0
DWIDTH 16 0
BBX 15 22 0 0
BITMAP
0060
00E0
01C0
0300
0600
0000
07E0
1C70
3038
701C
601E
E01E
E00E
E00E
E00E
E00E
F00E
F00C
701C
3818
1C70
0FC0
ENDCHAR

STARTCHAR ocircumflex
ENCODING 244
SWIDTH 546 0
DWIDTH 16 0
BBX 15 22 0 0
BITMAP
0300
0780
0CC0
1860
3030
0000
07E0
1C70
3038
701C
601E
E01E
E00E
E00E
E00E
E00E
F00E
F00C
701C
3818
1C70
0FC0
ENDCHAR

STARTCHAR otilde
ENCODING 245
SWIDTH 546 0
DWIDTH 16 0
BBX 15 20 0 0
BITMAP
0E30
1FE0
31C0
0000
07E0
1C70
3038
701C
601E
E01E
E00E
E00E
E00E
E00E
F00E
F00C
701C
3818
1C70
0FC0
ENDCHAR

STARTCHAR odieresis
ENCODING 246
SWIDTH 546 0
DWIDTH 16 0
BBX 15 20 0 0
BITMAP
1860
3CF0
1860
0000
07E0
1C70
3038
701C
601E
E01E
E00E
E00E
E00E
E00E
F00E
F00C
701C
3818
1C70
0FC0
ENDCHAR

STARTCHAR divide
ENCODING 247
SWIDTH 606 0
DWIDTH 20 0
BBX 16 17 2 0
BITMAP
0180
03C0
0180
0000
0000
0000
0000
FFFF
FFFF
0000
0000
0000
0000
0000
0180
03C0
0180
ENDCHAR

STARTCHAR oslash
ENCODING 248
SWIDTH 556 0
DWIDTH 17 0
BBX 16 16 0 0
BITMAP
07E1
1C7B
381E
700E
603E
E06F
E0C7
E187
E307
F607
FC07
780E
780E
781C
DE38
8FE0
ENDCHAR

STARTCHAR ugrave
ENCODING 249
SWIDTH 603 0
DWIDTH 18 0
BBX 17 22 0 0
BITMAP
0C0000
0E0000
070000
018000
00C000
000000
781E00
F83E00
781E00
380E00
380E00
380E00
380E00
380E00
380E00
380E00
380E00
380E00
381E00
3C3E00
1FEE00
0FCF80
ENDCHAR

STARTCHAR uacute
ENCODING 250
SWIDTH 603 0
DWIDTH 19 0
BBX 17 22 0 0
BITMAP
006000
00E000
01C000
030000
060000
000000
380E00
F83E00
781E00
380E00
380E00
380E00
380E00
380E00
380E00
380E00
380E00
380E00
381E00
3C3E00
1FEE00
0FCF80
ENDCHAR

STARTCHAR ucircumflex
ENCODING 251
SWIDTH 603 0
DWIDTH 18 0
BBX 17 22 0 0
BITMAP
018000
03C000
066000
0C3000
181800
000000
380E00
F83E00
781E00
380E00
380E00
380E00
380E00
380E00
380E00
380E00
380E00
380E00
381E00
3C3E00
1FEE00
0FCF80
ENDCHAR

STARTCHAR udieresis
ENCODING 252
SWIDTH 603 0
DWIDTH 18 0
BBX 17 20 0 0
BITMAP
0C3000
1E7800
0C3000
000000
380E00
F83E00
781E00
380E00
380E00
380E00
380E00
380E00
380E00
380E00
380E00
380E00
381E00
3C3E00
1FEE00
0FCF80
ENDCHAR

STARTCHAR yacute
ENCODING 253
SWIDTH 556 0
DWIDTH 18 0
BBX 17 31 0 -9
BITMAP
001800
003800
007000
00C000
018000
000000
FE1F80
780700
380600
3C0C00
1C0C00
1C0800
0E1800
0E1800
0F1000
073000
072000
03E000
03E000
03C000
01C000
018000
018000
010000
010000
030000
020000
060000
4C0000
780000
700000
ENDCHAR

STARTCHAR thorn
ENCODING 254
SWIDTH 601 0
DWIDTH 20 0
BBX 18 33 0 -9
BITMAP
FC0000
3C0000
1C0000
1C0000
1C0000
1C0000
1C0000
1C0000
1C7E00
1DFF00
1F8F80
1E0780
1C03C0
1C01C0
1C01C0
1C01C0
1C01C0
1C0180
1C0180
1C0300
1C0700
1F0C00
1FF800
1DE000
1C0000
1C0000
1C0000
1C0000
1C0000
1C0000
1C0000
3E0000
FF8000
ENDCHAR

STARTCHAR ydieresis
ENCODING 255
SWIDTH 556 0
DWIDTH 18 0
BBX 17 29 0 -9
BITMAP
061800
0F3C00
061800
000000
FE1F80
780700
380600
3C0C00
1C0C00
1C0800
0E1800
0E1800
0F1000
073000
072000
03E000
03E000
03C000
01C000
018000
018000
010000
010000
030000
020000
060000
4C0000
780000
700000
ENDCHAR
ENDFONT
